<svg viewBox="0 0 96 96" xmlns="http://www.w3.org/2000/svg" xmlns:xlink="http://www.w3.org/1999/xlink" id="Icons_Asia" overflow="hidden"><path d="M88.5 26.5 88.5 25.9C88.3 26 88.1 26.2 87.9 26.4 88 26.4 88 26.5 88.1 26.5 88.2 26.5 88.3 26.5 88.5 26.5Z" stroke="none" stroke-width="1" stroke-linecap="butt" stroke-linejoin="miter" stroke-miterlimit="4" fill="currentColor"/><path d="M53.9 74.4C54 74.2 54.1 74.1 54.3 74.1L54.6 74.1C54.5 73.8 54.2 73.7 54.1 73.5L54.1 73.3C54 73 53.7 73 53.8 72.7 53.8 72.5 53.9 72.3 54 72.1 54.1 72.1 54.1 72.1 54.2 72.1 54.3 72.1 54.3 72.1 54.4 72L54.4 71.8 54.8 71.7C54.5 71.4 54.5 71.4 54.3 71.4 54.1 71.4 54 71.3 54 71.1 54 70.9 53.8 70.8 53.6 70.8 53.5 70.8 53.5 70.9 53.4 70.9 53.2 71.2 52.9 71.4 52.7 71.7 52.1 71.8 52 71.9 51.8 72.3 51.6 72.7 51.2 72.9 50.8 72.9 50.6 72.9 50.5 73.1 50.4 73.2 50.4 73.3 50.4 73.5 50.1 73.6L49.4 73.4C49.1 73.6 49 74 49.2 74.3 49.2 74.4 49.2 74.4 49.3 74.5 49.3 74.7 49.4 74.9 49.6 75 49.7 75.1 49.8 75.2 49.8 75.3 49.8 75.5 49.9 75.8 50 76 50.2 76 50.3 76 50.5 76 50.6 76 50.7 76 50.8 76.1 50.9 76.3 51.2 76.3 51.3 76.2 51.4 76.1 51.6 76.1 51.7 76.2 51.9 76.3 52.1 76.3 52.2 76.1 52.2 76.1 52.2 76.1 52.2 76.1 52.2 76.1 52.3 76.1 52.3 76.1 52.3 76.3 52.2 76.5 52.4 76.7 52.7 76.7 52.9 76.4 53.2 76.6 53.1 76.4 53.1 76.2 53.2 76 53.3 75.9 53.3 75.8 53.3 75.7 53.2 75.5 53.3 75.2 53.6 75.1 53.8 75 53.9 74.8 53.9 74.5 53.8 74.5 53.8 74.4 53.9 74.4Z" stroke="none" stroke-width="1" stroke-linecap="butt" stroke-linejoin="miter" stroke-miterlimit="4" fill="currentColor"/><path d="M47.4 76.2C47.3 76 47.1 75.9 46.9 75.8 46.8 75.8 46.7 75.6 46.6 75.5 46.5 75.4 46.5 75.3 46.4 75.1 46.2 75 46 75 45.9 74.8L46 74.3C45.9 74.2 45.7 74.2 45.7 74.1 45.7 73.9 45.5 73.8 45.4 73.8 45.3 73.6 45 73.6 44.9 73.4 44.8 73.3 44.7 73.2 44.6 73.3 44.3 73.4 44.2 73.2 44.1 73 43.9 72.8 43.7 72.6 43.5 72.5 43.3 72.4 43.1 72.2 43 72 42.9 71.7 42.6 71.6 42.3 71.6 42.1 71.6 41.9 71.6 41.7 71.4 41.7 71.4 41.6 71.4 41.5 71.4 41.4 71.6 41.5 71.7 41.6 71.8 41.7 72 41.9 72.1 42.1 72.3 42.4 72.4 42.6 72.6 42.7 72.9 42.8 73.1 42.9 73.2 43.1 73.3 43.3 73.4 43.4 73.5 43.4 73.7 43.4 73.8 43.5 74 43.6 74.1 43.6 74.2 43.7 74.2 43.7 74.3 44.1 74.7 44.4 75.1 44.6 75.6 44.6 75.7 44.7 75.8 44.8 75.9 45 76.1 45.2 76.3 45.3 76.5 45.5 76.7 45.7 76.9 45.9 77 46.1 77.2 46.3 77.3 46.6 77.5L47.3 77.5C47.4 77.2 47.4 76.7 47.4 76.2Z" stroke="none" stroke-width="1" stroke-linecap="butt" stroke-linejoin="miter" stroke-miterlimit="4" fill="currentColor"/><path d="M67.1 50.5 66.6 50.4 66.4 50.7C66.4 51.1 66.4 51.4 66.3 51.8 66.1 52.1 65.9 52.4 65.7 52.7 65.5 53 65.1 53.1 64.8 53.2L64.6 52.9C64.6 53.1 64.5 53.3 64.4 53.4 64.3 53.5 64.2 53.6 64.2 53.7 64.1 53.9 64 54 63.8 53.9 63.6 53.8 63.5 53.8 63.3 53.9 63 53.9 62.7 53.9 62.4 54 62.1 54.1 61.9 54.3 61.7 54.5 61.6 54.5 61.6 54.6 61.5 54.6 61.4 54.6 61.4 54.7 61.4 54.8 61.6 54.8 61.8 54.9 61.9 54.8 62.1 54.7 62.2 54.7 62.4 54.6 62.6 54.6 62.8 54.5 62.9 54.5 63.1 54.4 63.5 54.4 63.7 54.5 63.7 55 63.7 55 64 55.2 64.1 55.1 64.2 55 64.2 54.9 64.2 54.8 64.4 54.7 64.5 54.6 64.4 54.4 64.4 54.4 64.6 54.3 64.7 54.3 64.7 54.4 64.8 54.4 65.1 54.6 65.4 54.5 65.6 54.3 65.6 54.3 65.7 54.3 65.7 54.3 65.8 54.3 65.7 54.5 65.9 54.5 65.9 54.4 66 54.3 66.1 54.2 66.2 54.1 66.3 54.1 66.4 54L66.4 54.3C66.6 54.3 66.6 54 66.8 53.9 66.7 53.7 66.7 53.4 66.8 53.2 66.9 53.1 66.9 53 66.9 52.8 66.9 52.5 66.8 52.3 67.1 52.1 67.2 52 67.2 51.9 67.3 51.8 67.4 51.6 67.5 51.3 67.3 51.1 67.3 50.8 67.2 50.7 67.1 50.5Z" stroke="none" stroke-width="1" stroke-linecap="butt" stroke-linejoin="miter" stroke-miterlimit="4" fill="currentColor"/><path d="M66 22.5 66.2 22.2C66.7 22.5 67.1 22.2 67.5 22.2 67.7 22.4 67.7 22.4 67.9 22.3 68.2 22.2 68.5 22.1 68.8 22 68.9 22 69 21.9 69 21.8 69.1 21.7 69.1 21.6 69.2 21.5 69 21.4 68.8 21.3 68.6 21.3 68.3 21.2 68.3 21.2 68.1 21.5 68 21.6 68 21.6 67.9 21.7L68.1 22.1C67.8 22.1 67.6 21.9 67.6 21.6 67.6 21.5 67.6 21.4 67.7 21.4 67.8 21.3 67.8 21.3 67.9 21.2L67.4 20.9 67 21 66.8 21.3C66.4 21.2 66 21 65.7 20.7L65.2 21C65.2 21 65.2 21 65.2 21 65 21.1 64.9 21.3 64.9 21.5 64.9 21.6 64.8 21.7 64.8 21.9 65 22 65.1 22.1 65.2 22.2 65.4 22.4 65.7 22.5 66 22.5Z" stroke="none" stroke-width="1" stroke-linecap="butt" stroke-linejoin="miter" stroke-miterlimit="4" fill="currentColor"/><path d="M41.7 16.1C41.6 16.1 41.4 16.1 41.3 16.2 41.2 16.2 41.1 16.3 41.1 16.3 41.1 16.5 40.9 16.5 40.8 16.6 40.7 16.6 40.7 16.7 40.6 16.7 40.7 16.8 40.9 16.9 41 17 41.1 17.1 41.2 17.2 41.2 17.4 41.6 17.4 41.9 17.5 42.2 17.5 42.3 17.5 42.3 17.5 42.4 17.6 42.8 17.8 43.2 17.8 43.7 17.7 43.8 17.7 43.9 17.6 44 17.5 44 17.3 44 17.2 44 17 44 16.8 44 16.6 44.1 16.4 43.8 16.2 43.5 16.1 43.2 16.4 43.1 16.5 43 16.5 42.8 16.5 42.8 16.5 42.8 16.5 42.7 16.4 42.8 16.3 43 16.3 42.9 16.1 42.8 16.1 42.7 16 42.5 16 42.3 16.1 42 16.1 41.7 16.1Z" stroke="none" stroke-width="1" stroke-linecap="butt" stroke-linejoin="miter" stroke-miterlimit="4" fill="currentColor"/><path d="M55.7 74.3C55.8 74.3 55.9 74.3 56 74.3 56.4 74.3 56.8 74.3 57.1 74.4 57.5 74.5 57.8 74.2 58 73.7 57.9 73.8 57.8 73.8 57.7 73.9 57.5 74.1 57.3 74.2 57 74.1 56.6 74.1 56.1 74 55.7 73.9 55.5 74 55.4 74.1 55.3 74.1 55.2 74.2 55.1 74.2 55.1 74.3 55 74.7 54.9 75 54.8 75.4 54.8 75.6 54.7 75.8 54.6 76 54.6 76.1 54.5 76.2 54.5 76.3 54.5 76.4 54.5 76.5 54.6 76.5 54.9 76.6 54.9 76.8 54.9 77.1 54.9 77.2 54.9 77.4 54.8 77.5 54.8 77.7 54.9 77.8 55.1 77.7 55.2 77.7 55.2 77.6 55.2 77.6L55.2 76.3C55.3 76.3 55.3 76.2 55.4 76.2 55.5 76.1 55.7 76.2 55.7 76.4 55.7 76.5 55.7 76.6 55.7 76.7 55.9 76.9 56 77.1 56.1 77.3L56.8 77C56.6 77 56.4 76.8 56.4 76.6 56.4 76.4 56.3 76.2 56.2 76.1 56.1 76 56.1 75.9 56 75.8 56.1 75.7 56.2 75.6 56.3 75.6 56.5 75.5 56.7 75.3 56.7 75.1 56.6 75.2 56.4 75.3 56.2 75.3 56.1 75.3 55.9 75.4 55.8 75.5 55.7 75.6 55.6 75.6 55.5 75.5 55.4 75.4 55.4 75.4 55.3 75.3 55.2 75.2 55.1 75 55.2 74.8 55.4 74.3 55.5 74.2 55.7 74.3Z" stroke="none" stroke-width="1" stroke-linecap="butt" stroke-linejoin="miter" stroke-miterlimit="4" fill="currentColor"/><path d="M67.9 41.5C67.8 41.6 67.8 41.6 67.7 41.6 67.6 41.6 67.5 41.6 67.4 41.6 67.3 41.9 67.3 42.2 67.2 42.5 67.2 42.6 67.2 42.7 67.3 42.8 67.5 43 67.6 43.4 67.5 43.7 67.5 43.8 67.5 44 67.5 44.1 67.5 44.3 67.5 44.5 67.5 44.7 67.5 44.9 67.5 45.1 67.5 45.2 67.5 45.3 67.6 45.5 67.5 45.6 67.4 45.9 67.5 46.3 67.4 46.6 67.4 46.6 67.4 46.7 67.4 46.7 67.4 46.7 67.4 46.7 67.5 46.8L67.7 46.5 68.1 46.5C68 46.3 67.9 46.1 67.8 45.9 67.7 45.7 67.6 45.5 67.7 45.2 67.7 45.1 67.8 45 67.8 45 67.8 44.7 68.1 44.5 68.4 44.5 68.4 44.5 68.5 44.5 68.5 44.5 68.5 44.5 68.5 44.5 68.5 44.5 68.5 44.5 68.5 44.4 68.5 44.4 68.4 43.9 68.2 43.5 68 43 67.9 42.8 67.9 42.5 67.9 42.3 68.2 42.1 68.1 41.8 67.9 41.5Z" stroke="none" stroke-width="1" stroke-linecap="butt" stroke-linejoin="miter" stroke-miterlimit="4" fill="currentColor"/><path d="M40.5 16.3C40.6 16.2 40.6 16.2 40.7 16.1 40.8 16.1 40.8 16.1 40.9 16.1 41.1 16 41.4 15.9 41.6 15.9 41.9 15.9 42.2 15.8 42.5 15.8L42.5 15.4 42.9 15.2C42.7 15.1 42.5 15 42.3 14.9 42.1 14.8 41.9 14.7 41.8 14.6 41.6 14.7 41.4 14.7 41.2 14.8 41 14.9 40.7 14.9 40.5 15 40.4 15 40.3 15.1 40.3 15.2 40.3 15.4 40.2 15.6 40 15.7 39.9 15.7 39.9 15.8 39.8 15.8L40.3 16.2C40 16.2 39.8 16.2 39.6 16.2 39.5 16.2 39.4 16.2 39.4 16.4 39.6 16.5 39.7 16.6 39.9 16.6 40.2 16.6 40.4 16.5 40.5 16.3Z" stroke="none" stroke-width="1" stroke-linecap="butt" stroke-linejoin="miter" stroke-miterlimit="4" fill="currentColor"/><path d="M52.7 79.1C52.5 79.1 52.2 79.1 52 78.9 52 78.8 51.8 78.9 51.7 78.9 51.6 78.9 51.4 78.9 51.3 78.8 51.3 78.8 51.2 78.7 51.2 78.6 51.2 78.6 51.3 78.5 51.3 78.5 51.4 78.5 51.6 78.6 51.6 78.3 51.1 78.4 50.5 78.3 50 78.1 49.9 78.3 49.7 78.4 49.5 78.3 49.4 78.3 49.3 78.3 49.2 78.3 49 78.3 48.8 78.2 48.7 78.1 48.6 78 48.6 78 48.5 78 48.1 77.9 47.8 77.8 47.4 77.9L47.3 78.2C47.4 78.3 47.6 78.3 47.7 78.4 47.8 78.6 48 78.6 48.2 78.6 48.3 78.6 48.4 78.7 48.5 78.7 48.6 78.7 48.7 78.8 48.8 78.7 49.1 78.6 49.5 78.7 49.8 78.8 50.1 78.9 50.4 79 50.7 79 51.1 79 51.5 79 51.8 79.1 51.8 79.1 51.9 79.1 51.9 79.1 52.1 78.9 52.3 79 52.4 79.1 52.4 79.1 52.5 79.1 52.5 79.1 52.7 79.3 52.7 79.2 52.7 79.1 52.7 79.2 52.7 79.1 52.7 79.1Z" stroke="none" stroke-width="1" stroke-linecap="butt" stroke-linejoin="miter" stroke-miterlimit="4" fill="currentColor"/><path d="M68.9 48.5C68.5 48.4 68.1 48.2 67.8 47.9 67.7 47.8 67.6 47.6 67.5 47.5 67.4 47.4 67.3 47.5 67.3 47.6 67.4 47.9 67.4 48.3 67.2 48.6 67.2 48.7 67.2 48.8 67.1 48.8 67.1 48.9 67 49 66.9 49 66.9 49 66.9 49 66.9 49L66.7 49C66.7 49.1 66.6 49.2 66.5 49.3 66.4 49.4 66.3 49.5 66.2 49.5 66.3 49.6 66.3 49.7 66.3 49.8 66.3 49.9 66.3 50 66.4 50.1L66.8 49.8C66.7 49.8 66.6 49.7 66.5 49.6 66.5 49.6 66.4 49.5 66.4 49.4 66.4 49.3 66.5 49.3 66.6 49.3 66.7 49.3 66.8 49.4 67 49.3 67.1 49.2 67.3 49.2 67.5 49.3 67.7 49.4 67.9 49.5 68.1 49.5 68.1 49.4 68.2 49.4 68.2 49.3 68.3 49.1 68.6 48.9 68.9 48.9 69 48.9 69.2 48.8 69.3 48.8L69.2 48.3C69.1 48.4 69 48.5 68.9 48.5Z" stroke="none" stroke-width="1" stroke-linecap="butt" stroke-linejoin="miter" stroke-miterlimit="4" fill="currentColor"/><path d="M44.6 18.6C44.8 18.5 45 18.4 45.3 18.4 45.8 18.4 46.3 18.3 46.8 18.3 46.9 18.3 47 18.3 47 18.2 47.1 18.1 47.1 18 47.1 17.9 47.1 17.8 47 17.7 46.9 17.7 46.8 17.7 46.7 17.6 46.6 17.6 46.5 17.5 46.4 17.4 46.3 17.4 46.1 17.5 46 17.5 45.8 17.6 45.8 17.6 45.7 17.6 45.7 17.6L45.8 17.3C45.7 17.2 45.6 17.2 45.5 17.3 45.5 17.3 45.4 17.4 45.4 17.4 45.1 17.3 45 17.5 44.9 17.7 44.8 17.8 44.8 17.9 44.7 18 44.4 18.2 44.3 18.6 44 18.9 44.1 18.7 44.4 18.7 44.6 18.6Z" stroke="none" stroke-width="1" stroke-linecap="butt" stroke-linejoin="miter" stroke-miterlimit="4" fill="currentColor"/><path d="M55.2 65.6C55.2 65.8 55.3 65.9 55.3 66.1 55.3 66.2 55.4 66.3 55.6 66.3 55.6 66.3 55.6 66.3 55.6 66.3 55.6 66.3 55.7 66.3 55.8 66.3L55.7 66.7C56 66.9 56 66.9 56.2 66.7L56.1 66.2C56 66 56.1 65.7 56.3 65.6 56.5 65.5 56.6 65.3 56.6 65.1L56.4 64.4C56.3 64.4 56.3 64.4 56.2 64.3 55.8 64.1 55.6 64.2 55.6 64.7 55.6 64.8 55.6 64.8 55.6 64.9 55.6 65.1 55.6 65.4 55.5 65.5 55.3 65.6 55.2 65.4 55.2 65.6Z" stroke="none" stroke-width="1" stroke-linecap="butt" stroke-linejoin="miter" stroke-miterlimit="4" fill="currentColor"/><path d="M58.4 69.2C58.4 69.2 58.4 69.2 58.4 69.2L58.3 69.4 57.5 70C57.5 70 57.4 70 57.4 69.9 57.2 69.7 57.2 69.7 57 69.9 56.9 70 56.7 70.1 56.5 70.2L56.5 70.4 56.8 70.2C56.9 70.2 56.9 70.2 57 70.2 57.1 70.2 57.2 70.2 57.2 70.2 57.3 70.1 57.5 70.2 57.6 70.3 57.7 70.4 57.7 70.5 57.6 70.6 57.5 70.8 57.6 71.1 57.9 71.1 57.9 71.1 57.9 71.1 57.9 71.1 58 71.1 58.1 71.2 58.1 71.2 58.2 71.2 58.3 71.4 58.4 71.2 58.4 71.1 58.4 71.1 58.4 71 58.4 70.9 58.4 70.9 58.3 70.8 58.3 70.7 58.3 70.6 58.4 70.5 58.5 70.4 58.6 70.4 58.7 70.5 58.8 70.5 58.9 70.5 58.9 70.4 58.9 70.4 58.9 70.3 58.9 70.3 58.9 70.2 58.9 70.2 58.9 70.1 58.8 69.9 58.8 69.8 58.8 69.6 58.7 69.5 58.6 69.3 58.4 69.2Z" stroke="none" stroke-width="1" stroke-linecap="butt" stroke-linejoin="miter" stroke-miterlimit="4" fill="currentColor"/><path d="M56.4 70.5 56.4 70.5 56.4 70.5 56.4 70.5Z" stroke="none" stroke-width="1" stroke-linecap="butt" stroke-linejoin="miter" stroke-miterlimit="4" fill="currentColor"/><path d="M33.4 69.3C33.4 69.3 33.3 69.2 33.2 69.2 32.9 69.7 32.8 70.3 33 70.8 33.1 71.1 33.2 71.1 33.5 71.1 33.6 71.1 33.7 71 33.7 71 33.9 70.9 34 70.6 33.9 70.4 33.9 70 33.6 69.7 33.4 69.3Z" stroke="none" stroke-width="1" stroke-linecap="butt" stroke-linejoin="miter" stroke-miterlimit="4" fill="currentColor"/><path d="M70 22C70.3 22.1 70.6 22.3 71 22.4 71 22.4 71.1 22.4 71.1 22.4 71.5 22.5 71.9 22.4 72.3 22.2 72.2 22.1 72.2 22.1 72.1 22 71.9 21.9 71.7 21.9 71.5 21.9 71.4 21.9 71.2 21.9 71.1 21.8 70.9 21.7 70.7 21.6 70.5 21.7 70.4 21.7 70.3 21.7 70.2 21.7 70.1 21.7 70 21.6 69.9 21.5 69.9 21.6 69.8 21.7 69.8 21.7 69.9 21.9 70 21.9 70 22Z" stroke="none" stroke-width="1" stroke-linecap="butt" stroke-linejoin="miter" stroke-miterlimit="4" fill="currentColor"/><path d="M61.2 55C61 55.1 60.9 55.2 60.7 55.3 60.7 55.3 60.7 55.4 60.7 55.4L60.8 55.5 61 55.4C61.2 55.5 61.2 55.8 61.1 55.9 61.1 55.9 61.1 55.9 61.1 55.9 61 56.1 60.9 56.2 61.1 56.4 61.2 56.3 61.3 56.4 61.4 56.5 61.6 56.4 61.6 56.4 61.7 56.2 61.8 56 61.9 55.8 61.9 55.5 61.9 55.5 61.9 55.4 61.9 55.4L61.8 55.1 61.2 55Z" stroke="none" stroke-width="1" stroke-linecap="butt" stroke-linejoin="miter" stroke-miterlimit="4" fill="currentColor"/><path d="M55.7 61.9C56 61.5 56.2 61.1 56.2 60.7 56.2 60.6 56.2 60.5 56.2 60.4 56.2 60.3 56.1 60.3 56 60.3 56 60.3 56 60.3 55.9 60.3 55.8 60.3 55.8 60.4 55.7 60.4 55.6 60.6 55.5 60.8 55.3 60.9 55.2 61.1 55.2 61.3 55.2 61.5 55.4 61.7 55.5 61.9 55.7 61.9Z" stroke="none" stroke-width="1" stroke-linecap="butt" stroke-linejoin="miter" stroke-miterlimit="4" fill="currentColor"/><path d="M49.9 63.9C50 63.7 50.1 63.6 50.2 63.3 49.8 63.1 49.4 63.2 49.1 63.5 49 63.6 48.9 63.9 49.1 64 49.1 64 49.2 64.1 49.2 64.1 49.5 64.3 49.8 64.2 49.9 63.9Z" stroke="none" stroke-width="1" stroke-linecap="butt" stroke-linejoin="miter" stroke-miterlimit="4" fill="currentColor"/><path d="M68.2 24C68.3 23.9 68.3 23.7 68.2 23.7 67.9 23.5 67.6 23.3 67.2 23.4 67 23.4 66.8 23.6 66.7 23.8 67.2 24 67.7 24.1 68.2 24Z" stroke="none" stroke-width="1" stroke-linecap="butt" stroke-linejoin="miter" stroke-miterlimit="4" fill="currentColor"/><path d="M58.4 79.3C58.3 79.3 58.3 79.3 58.2 79.4 58 79.5 57.7 79.7 57.5 79.8 57.3 79.9 57.2 80.1 57.3 80.3 57.5 80.3 57.8 80.2 57.9 80 58.1 79.8 58.3 79.7 58.5 79.6 58.7 79.5 59 79.4 59.2 79.3L58.5 79.4C58.5 79.3 58.4 79.3 58.4 79.3Z" stroke="none" stroke-width="1" stroke-linecap="butt" stroke-linejoin="miter" stroke-miterlimit="4" fill="currentColor"/><path d="M63.2 54.7C63.1 54.7 63.1 54.7 63 54.7 62.9 54.9 62.6 55 62.4 54.9 62.3 55 62.3 55.1 62.2 55.2 62.2 55.3 62.2 55.4 62.2 55.4 62.2 55.5 62.3 55.5 62.4 55.6 62.5 55.5 62.6 55.4 62.7 55.3 62.8 55.2 62.9 55.2 63.1 55.3 63.2 55.3 63.3 55.2 63.4 55 63.5 54.8 63.2 54.8 63.2 54.7Z" stroke="none" stroke-width="1" stroke-linecap="butt" stroke-linejoin="miter" stroke-miterlimit="4" fill="currentColor"/><path d="M58.1 67.6C58 67.5 57.8 67.6 57.7 67.7L58 68.1 57.8 68.4 58 68.9 58.1 68.9C58.1 68.8 58.1 68.7 58.1 68.6 58.1 68.5 58.2 68.4 58.3 68.4 58.3 68.3 58.3 68.2 58.3 68.1 58.3 67.8 58.2 67.7 58.1 67.6Z" stroke="none" stroke-width="1" stroke-linecap="butt" stroke-linejoin="miter" stroke-miterlimit="4" fill="currentColor"/><path d="M59.6 24.6C59.8 24.5 59.9 24.4 60.1 24.4 60.1 24.4 60.1 24.3 60.1 24.3 60.1 24.3 60.1 24.2 60 24.2 59.8 24.2 59.6 24.2 59.5 24 59.5 24 59.4 24 59.4 24L59.4 24.5C59.5 24.5 59.6 24.6 59.6 24.6Z" stroke="none" stroke-width="1" stroke-linecap="butt" stroke-linejoin="miter" stroke-miterlimit="4" fill="currentColor"/><path d="M27.7 24.2C27.9 24.1 28.1 24.2 28.2 24 28.2 23.9 28.1 23.8 28 23.8 27.9 23.8 27.7 23.8 27.6 23.9 27.6 24 27.5 24 27.6 24.1 27.6 24.2 27.6 24.2 27.7 24.2Z" stroke="none" stroke-width="1" stroke-linecap="butt" stroke-linejoin="miter" stroke-miterlimit="4" fill="currentColor"/><path d="M51.1 22.7C50.9 22.7 50.8 22.8 50.8 22.9 50.9 23.1 51 23.1 51.2 23.1 51.3 23.1 51.5 23 51.5 22.9 51.5 22.9 51.5 22.8 51.5 22.8 51.5 22.8 51.5 22.7 51.4 22.7 51.3 22.7 51.2 22.7 51.1 22.7Z" stroke="none" stroke-width="1" stroke-linecap="butt" stroke-linejoin="miter" stroke-miterlimit="4" fill="currentColor"/><path d="M57.1 68.6C57.1 68.5 57.1 68.5 57.1 68.6 57 68.5 56.9 68.5 56.9 68.5 56.9 68.5 56.9 68.6 56.9 68.6 56.9 68.7 56.9 68.8 56.8 68.9 56.7 69 56.7 69 56.6 69.1 56.7 69.3 56.8 69.4 57 69.4 56.8 69.2 57 69 57 68.8 57.1 68.7 57.1 68.7 57.1 68.6Z" stroke="none" stroke-width="1" stroke-linecap="butt" stroke-linejoin="miter" stroke-miterlimit="4" fill="currentColor"/><path d="M57.2 66.8C57.1 66.8 57 66.7 56.9 66.7 56.9 66.7 56.8 66.6 56.7 66.6 56.6 66.6 56.5 66.6 56.5 66.7 56.5 66.7 56.5 66.7 56.5 66.7 56.5 66.7 56.5 66.8 56.5 66.8L56.8 66.7 57.3 67.1 57.6 67.1C57.6 67.1 57.6 67.1 57.6 67.1 57.3 67.2 57.3 66.9 57.2 66.8Z" stroke="none" stroke-width="1" stroke-linecap="butt" stroke-linejoin="miter" stroke-miterlimit="4" fill="currentColor"/><path d="M55.6 79.2C55.5 79.2 55.3 79.2 55.2 79.3 55.6 79.5 56 79.5 56.3 79.3 56.1 79.3 56 79.3 55.9 79.3 55.9 79.3 55.7 79.2 55.6 79.2Z" stroke="none" stroke-width="1" stroke-linecap="butt" stroke-linejoin="miter" stroke-miterlimit="4" fill="currentColor"/><path d="M59.5 74.2 59.6 74.6 59.7 74.3 60 74.2C59.9 74.1 60 74 60 73.9 60 73.8 60.1 73.7 60 73.6L59.5 74.2Z" stroke="none" stroke-width="1" stroke-linecap="butt" stroke-linejoin="miter" stroke-miterlimit="4" fill="currentColor"/><path d="M56.4 68.5C56.4 68.5 56.4 68.5 56.4 68.5L56.7 68.6 57 68.2 56.5 68C56.4 68.2 56.4 68.3 56.4 68.5Z" stroke="none" stroke-width="1" stroke-linecap="butt" stroke-linejoin="miter" stroke-miterlimit="4" fill="currentColor"/><path d="M54.8 79.9C54.9 80 55 80 55.1 80 55.2 80 55.3 80.1 55.4 80.2 55.5 80.2 55.5 80.2 55.6 80.2 55.6 80.2 55.6 80.2 55.6 80.2 55.3 79.8 55.2 79.7 54.8 79.9Z" stroke="none" stroke-width="1" stroke-linecap="butt" stroke-linejoin="miter" stroke-miterlimit="4" fill="currentColor"/><path d="M47.5 75.9C47.5 76 47.6 76 47.7 76.1 47.7 76.1 47.8 76.1 47.9 76.1 47.8 76 47.7 75.9 47.7 75.8 47.6 75.7 47.6 75.6 47.5 75.4 47.4 75.4 47.4 75.4 47.3 75.4 47.3 75.4 47.2 75.5 47.2 75.5 47.3 75.7 47.4 75.8 47.5 75.9Z" stroke="none" stroke-width="1" stroke-linecap="butt" stroke-linejoin="miter" stroke-miterlimit="4" fill="currentColor"/><path d="M55.6 67.1C55.6 67.3 55.7 67.4 55.8 67.6 55.8 67.6 55.9 67.6 55.9 67.6 55.9 67.6 56 67.6 56 67.5 56.1 67.4 56 67.2 56 67.1 55.9 67 55.7 67 55.6 67.1Z" stroke="none" stroke-width="1" stroke-linecap="butt" stroke-linejoin="miter" stroke-miterlimit="4" fill="currentColor"/><path d="M59.1 76.6C59.1 76.6 59.2 76.5 59.2 76.5 59.2 76.4 59.2 76.4 59.1 76.4 59 76.3 58.8 76.4 58.7 76.5 58.7 76.5 58.9 76.6 59.1 76.6Z" stroke="none" stroke-width="1" stroke-linecap="butt" stroke-linejoin="miter" stroke-miterlimit="4" fill="currentColor"/><path d="M56.9 76.9C56.9 77 56.8 77.1 56.7 77.2 56.6 77.3 56.6 77.3 56.6 77.4 56.6 77.5 56.7 77.6 56.9 77.5 56.9 77.3 56.9 77.1 56.9 76.9L56.9 76.9Z" stroke="none" stroke-width="1" stroke-linecap="butt" stroke-linejoin="miter" stroke-miterlimit="4" fill="currentColor"/><path d="M53.6 79.3C53.6 79.3 53.5 79.4 53.5 79.4 53.5 79.5 53.6 79.5 53.6 79.5 53.8 79.5 54 79.4 54.2 79.3 54.1 79.3 54 79.3 53.9 79.2 53.8 79.3 53.7 79.3 53.6 79.3Z" stroke="none" stroke-width="1" stroke-linecap="butt" stroke-linejoin="miter" stroke-miterlimit="4" fill="currentColor"/><path d="M54.2 79.4C54.2 79.4 54.2 79.4 54.2 79.4 54.2 79.4 54.2 79.4 54.2 79.4L54.2 79.4 54.2 79.4Z" stroke="none" stroke-width="1" stroke-linecap="butt" stroke-linejoin="miter" stroke-miterlimit="4" fill="currentColor"/><path d="M54.1 79.1C54.1 79.2 54.2 79.3 54.2 79.3 54.3 79.3 54.4 79.3 54.5 79.3 54.6 79.3 54.6 79.3 54.6 79.2 54.6 79.2 54.6 79.1 54.5 79.1 54.4 79.2 54.3 79.2 54.1 79.1Z" stroke="none" stroke-width="1" stroke-linecap="butt" stroke-linejoin="miter" stroke-miterlimit="4" fill="currentColor"/><path d="M59.6 73.6C59.6 73.6 59.6 73.6 59.6 73.6 59.5 73.6 59.5 73.6 59.4 73.7 59.4 73.8 59.4 73.8 59.3 74 59.7 73.9 59.7 73.7 59.6 73.6Z" stroke="none" stroke-width="1" stroke-linecap="butt" stroke-linejoin="miter" stroke-miterlimit="4" fill="currentColor"/><path d="M66.7 23C66.6 23 66.6 23.1 66.7 23 66.6 23.1 66.6 23.2 66.7 23.2 66.8 23.3 66.9 23.2 67 23 66.8 23 66.8 23 66.7 23Z" stroke="none" stroke-width="1" stroke-linecap="butt" stroke-linejoin="miter" stroke-miterlimit="4" fill="currentColor"/><path d="M53.1 79.3C53.1 79.3 53.1 79.4 53.1 79.4L53.3 79.3C53.2 79.2 53.2 79.2 53.2 79.2 53.2 79.2 53.1 79.3 53.1 79.3Z" stroke="none" stroke-width="1" stroke-linecap="butt" stroke-linejoin="miter" stroke-miterlimit="4" fill="currentColor"/><path d="M57.5 69.1C57.5 69.1 57.5 69.1 57.5 69.1 57.6 69.2 57.7 69.1 57.8 69.1 57.7 69 57.7 69 57.7 69 57.6 69 57.5 69 57.5 69.1Z" stroke="none" stroke-width="1" stroke-linecap="butt" stroke-linejoin="miter" stroke-miterlimit="4" fill="currentColor"/><path d="M59.2 23.9 58.9 24C59.1 24.1 59.1 24.1 59.2 23.9Z" stroke="none" stroke-width="1" stroke-linecap="butt" stroke-linejoin="miter" stroke-miterlimit="4" fill="currentColor"/><path d="M58.9 24 58.9 24 58.9 24 58.9 24Z" stroke="none" stroke-width="1" stroke-linecap="butt" stroke-linejoin="miter" stroke-miterlimit="4" fill="currentColor"/><path d="M57.4 68.6 57.2 68.8 57.2 68.8C57.3 68.8 57.4 68.8 57.4 68.6Z" stroke="none" stroke-width="1" stroke-linecap="butt" stroke-linejoin="miter" stroke-miterlimit="4" fill="currentColor"/><path d="M57.1 74.9 56.8 74.8C56.9 74.9 56.9 75.1 57.1 74.9Z" stroke="none" stroke-width="1" stroke-linecap="butt" stroke-linejoin="miter" stroke-miterlimit="4" fill="currentColor"/><path d="M60 73.2C60 73.2 59.9 73.2 60 73.2 59.9 73.2 59.9 73.2 59.9 73.3 59.9 73.3 59.9 73.3 60 73.3L60 73.2Z" stroke="none" stroke-width="1" stroke-linecap="butt" stroke-linejoin="miter" stroke-miterlimit="4" fill="currentColor"/><path d="M93.1 30.4C93 30.3 92.9 30.3 92.7 30.3 92.5 30.4 92.3 30.3 92.1 30.2 92 30.2 91.9 30.2 91.8 30.2 91.8 30.4 91.9 30.6 91.9 30.8L91.6 30.8 91.3 30.5C91.4 30.1 91.2 29.7 90.9 29.5L90.6 29.6C90.6 29.5 90.5 29.4 90.5 29.3 90.3 29.2 90.1 29.1 89.9 29 89.6 28.9 89.3 28.7 89.1 28.5 89 28.4 88.9 28.4 88.8 28.3 88.7 28.2 88.5 28.2 88.4 28.2L88.4 28.3C88.1 28.1 87.7 28 87.3 27.9 87.1 27.9 86.8 27.8 86.6 27.7 86.4 27.6 86.2 27.6 86 27.6 85.4 27.6 84.8 27.6 84.2 27.5 84 27.4 83.7 27.4 83.5 27.4 83.5 27.4 83.4 27.4 83.4 27.4L83.3 27.8C83.5 28 83.6 28.2 83.6 28.4 83.4 28.7 83.1 28.7 82.9 28.7 82.7 28.4 82.7 28.4 82.1 28.2 82.1 28.1 82.1 28 82 27.8 82 27.8 82 27.8 82 27.8 82.2 27.8 82.3 27.8 82.5 27.8 82.6 27.8 82.6 27.7 82.6 27.6 82.5 27.6 82.4 27.5 82.3 27.5 82.2 27.5 82.1 27.5 82 27.5 81.8 27.6 81.7 27.8 81.5 27.9 81.4 28 81.3 28 81.2 28 80.8 28 80.3 28 79.9 27.9 79.4 27.8 79 27.8 78.5 28 78.3 28.1 78.1 28.1 77.9 28 77.7 27.9 77.6 27.9 77.4 27.8 77.3 27.8 77.2 27.7 77.1 27.7 77.1 27.6 77.2 27.5 77.2 27.4 77.3 27.2 77.2 27 77.1 26.9 77 26.8 76.8 26.7 76.7 26.7 76.2 26.5 75.7 26.5 75.2 26.5 74.8 26.5 74.4 26.6 74.1 26.7 73.8 26.8 73.6 26.8 73.3 26.8 73.1 26.8 72.9 26.7 72.9 26.5 72.8 26.3 72.6 26.2 72.4 26.2 72.3 26.2 72.3 26.2 72.2 26.2 71.9 26 71.7 25.9 71.4 25.8 71.5 25.6 71.6 25.6 71.7 25.7 71.7 25.7 71.8 25.7 71.8 25.7 71.8 25.7 71.8 25.7 71.8 25.7 71.8 25.7 71.8 25.6 71.7 25.6 71.3 25.4 70.8 25.3 70.4 25.3 70.3 25.3 70.2 25.4 70.1 25.4 70 25.4 70 25.5 70 25.5 70 25.4 70 25.3 70 25.3L69.9 25.3C69.9 25 69.7 25 69.6 25 69.2 24.9 68.8 24.9 68.4 24.8L67 24.7 67 24.9C66.8 25 66.5 25 66.2 25 66.1 25 66 25.1 66 25.2 66 25.2 66 25.2 66 25.2L66.4 25.2C66.1 25.4 66.3 25.7 66.3 26 66.1 26.1 66.1 26.1 65.8 26 65.7 26 65.7 26 65.6 26 65.5 26 65.4 26 65.3 26L65.3 26C65.3 26.1 65.3 26.3 65.2 26.4 65.1 26.4 65.1 26.4 65.1 26.4 64.8 26.2 64.5 26.1 64.2 26 64 25.9 63.8 26 63.6 26.1 63.3 26.3 62.9 26.3 62.7 26.1 62.5 26 62.4 25.9 62.2 25.8 62.1 25.9 62.1 26 62 26.1 61.9 26.3 61.8 26.4 61.8 26.6 61.7 26.8 61.6 26.9 61.4 26.9 60.8 26.7 60.3 26.3 60 25.7 59.8 25.5 59.7 25.3 59.4 25.2 59.3 25.2 59.2 25.2 59.1 25.2 59 25.3 59.1 25.5 58.9 25.5 58.7 25.5 58.5 25.3 58.4 25.1 58.5 25.1 58.6 25.1 58.6 25 58.6 24.7 58.7 24.6 58.8 24.4 58.8 24.3 58.8 24.2 58.8 24.2L58.7 24C58.5 24 58.4 23.9 58.2 23.8 58 23.7 57.7 23.7 57.5 23.8 57.4 23.8 57.3 23.9 57.3 23.9 57.4 24.1 57.4 24.3 57.3 24.5 57.3 24.6 57.5 24.6 57.4 24.7 57.3 24.7 57.2 24.7 57.1 24.7 56.8 24.5 56.4 24.5 56.1 24.5 55.7 24.5 55.3 24.5 54.9 24.3 54.7 24.2 54.5 24.1 54.5 23.9 54.5 23.9 54.5 23.9 54.4 23.8 54.2 23.8 53.9 23.8 53.7 23.7 53.2 23.6 52.7 23.6 52.2 23.7 52.1 23.7 52 23.8 52 23.9 52 23.9 51.9 24 51.9 24 51.5 24 51.8 23.6 51.6 23.5 51.3 23.7 50.9 23.6 50.5 23.4 50.3 23.3 50.1 23.3 50 23.3 49.9 23.3 49.8 23.4 49.7 23.6L50.3 23.6C50 23.9 49.7 24 49.5 24 49.3 24 49.2 24.1 49 24.1 48.8 24.2 48.6 24.3 48.3 24.3 48.2 24.3 48 24.3 47.9 24.3 47.7 24.3 47.7 24.4 47.6 24.5L47.6 24.5 47.6 24.5 47.2 24.6C47.4 24.4 47.5 24 47.9 23.9 47.9 23.9 48 23.8 48 23.8 48.1 23.7 48.2 23.6 48.4 23.6 48.5 23.6 48.6 23.6 48.7 23.6 49 23.4 49.3 23.2 49.7 23 49.9 22.9 50 22.7 50.2 22.7 50.4 22.7 50.6 22.6 50.8 22.5 51 22.3 51.2 22.3 51.4 22.2 51.5 22.1 51.6 22 51.7 21.9 51.8 21.8 51.8 21.7 51.7 21.6 51.6 21.5 51.7 21.5 51.8 21.4 51.9 21.4 51.9 21.3 51.9 21.2L51.6 21 51.3 21.1 51.1 20.5 51 20.7C50.7 20.4 50.3 20.3 49.8 20.4 49.7 20.4 49.7 20.4 49.6 20.4 49.3 20.4 49.1 20.4 48.8 20.4 48.7 20.4 48.7 20.4 48.6 20.5 48.4 20.8 48.1 20.7 47.8 20.7 47.7 20.4 48.1 20.4 48.1 20.2L46.7 20.1C46.9 19.9 47.2 19.9 47.4 19.6 47 19.4 46.5 19.4 46 19.5 45.5 19.6 45 19.9 44.7 20.4 44.7 20.6 44.8 20.8 44.8 20.9 44.6 20.9 44.4 20.9 44.3 20.9 44.2 20.9 43.9 20.9 43.8 20.9 43.8 20.9 43.8 20.9 43.7 20.9 43.7 21 43.9 21 43.9 21.2 43.6 21.1 43.3 21.1 43 21.3 42.7 21.5 42.3 21.5 41.9 21.4L42 21.1C42 21.1 41.9 21.1 41.9 21.1 41.8 21.1 41.8 21.1 41.7 21.1 41.5 21.2 41.3 21.3 41.1 21.2 40.9 21.2 40.6 21.2 40.4 21.3 40.4 21.5 40.3 21.5 40.2 21.5 39.8 21.6 39.4 21.6 39.1 21.7 38.9 21.7 38.7 21.8 38.5 21.8 38.4 21.8 38.3 21.9 38.3 21.9 38.2 21.9 38 22 37.9 22 37.7 22.1 37.4 22.2 37.2 22.2 37.1 22.2 37.1 22.2 37 22.2 37 22.3 37.2 22.3 37.1 22.4 37.1 22.4 37 22.4 37 22.4L37 22.4 36.8 22.7 36.8 22.7 36.6 23C36.8 23.2 37.1 23.4 37.2 23.7 37.1 23.8 37 23.9 36.9 23.9 36.7 23.9 36.5 23.9 36.3 23.9 36.5 23.9 36.6 23.7 36.7 23.6 36.6 23.6 36.5 23.6 36.3 23.6 36 23.7 35.8 23.7 35.5 23.7 35 23.8 34.5 23.8 34 23.8 33.9 23.8 33.8 23.8 33.7 23.8 33.4 23.8 33.3 24 33.4 24.3 33.5 24.4 33.5 24.6 33.5 24.8 33.5 25 33.6 25.1 33.8 25.1 33.8 25.1 33.9 25.1 33.9 25.1 34.1 25.1 34.3 25.2 34.4 25.4 34.5 25.5 34.6 25.6 34.7 25.6 34.8 25.6 34.9 25.7 35 25.8 35 25.8 35 25.9 35.1 25.9 35 26 35 26.2 34.9 26.3 35 26.5 35.1 26.7 35.1 26.9 35.1 27 35.1 27.1 34.9 27.2 34.8 27.2 34.8 27.3 34.8 27.3 34.9 27.4 35 27.5 35.2 27.6 35.2 27.7 35.3 27.7 35.3 27.8 35.1 27.6 34.9 27.4 34.5 27.3 34.6 27.1 34.9 26.9 34.7 26.6 34.5 26.6 34.5 26.8 34.3 26.9L34.3 26.2C34.4 26.2 34.5 26.1 34.6 26.1 34.7 26 34.8 25.9 34.7 25.8 34.6 25.7 34.5 25.7 34.4 25.7 34.1 25.8 33.8 25.7 33.5 25.5 33.1 25.2 32.6 25 32.2 25 32.1 25 32.1 25 32 24.9 31.8 24.7 31.7 24.7 31.5 25 31.7 25 31.7 25.3 31.9 25.3 31.9 25.3 32 25.4 32 25.5 32 25.5 31.9 25.6 31.9 25.6 31.7 25.6 31.6 25.6 31.4 25.5 31.3 25.4 31.1 25.4 31 25.4 30.9 25.5 30.9 25.7 30.9 25.8 30.9 25.9 31 25.9 31.1 25.9 31.3 26 31.5 26.1 31.8 26.1 32 26.1 32.1 26.3 32.1 26.5 32 26.5 31.9 26.5 31.9 26.5 31.7 26.4 31.5 26.3 31.3 26.3 31.1 26.3 31 26.3 30.8 26.2 30.7 26.2 30.5 26.1 30.4 26.1 30.4 26 30.4 25.9 30.4 25.8 30.3 25.6 30.3 25.4 30.4 25.3 30.4 25.3 30.4 25.2 30.5 25.2 30.6 25 30.4 24.7 30.2 24.6 30.2 24.7 30.2 24.8 30.3 24.9 30.4 25.1 30.3 25.3 30.1 25.4 30 25.4 30 25.5 29.9 25.5 29.6 25.6 29.4 25.8 29.3 26 29.5 26.3 29.7 26.5 29.8 26.7 29.9 26.8 29.9 26.9 29.8 27 29.8 27 29.7 27.1 29.7 27.1 29.5 27.3 29.5 27.6 29.6 27.8 29.6 27.9 29.7 28 29.7 28.1 30 28.2 30.3 28.1 30.5 28 30.6 28 30.7 28 30.8 28 31.3 28.1 31.8 28.2 31.9 28.8 31.9 28.8 31.9 28.9 31.9 28.9 31.7 29.1 31.7 29.1 31.7 29.4L32.4 29.6 31.8 30 31.5 29.7C31.5 29.5 31.5 29.3 31.5 29.1 31.4 28.9 31.3 28.8 31.2 28.6 31.2 28.6 31.1 28.6 31.1 28.5 30.8 28.5 30.5 28.6 30.3 28.7 30.1 28.8 30 29 30 29.1 30 29.2 30.1 29.3 30.1 29.4 30.2 29.6 30.1 29.8 30 29.9 29.9 30 29.8 30.1 29.7 30.2 29.6 30.5 29.4 30.6 29.2 30.7 29 30.8 28.8 30.9 28.7 31.1 28.3 31.1 28 31 27.6 31 27.5 31 27.5 31 27.4 31L27.4 31C27.3 30.9 27.2 30.9 27.1 30.8 27 30.8 27.1 30.6 27.1 30.6 27.3 30.5 27.5 30.6 27.7 30.7 27.9 30.9 28.1 30.8 28.2 30.7 28.2 30.5 28.5 30.4 28.6 30.2 28.7 30 28.8 29.8 29 29.7 29 29.7 29.1 29.6 29.1 29.5 29 29.3 29.2 29.1 29.3 28.9 29.2 28.8 29.1 28.7 29 28.7 28.8 28.6 28.7 28.4 28.7 28.2 28.7 28 28.7 27.7 28.7 27.5 28.7 27.4 28.7 27.3 28.7 27.2 28.7 27.1 28.7 27 28.8 26.9 28.9 26.7 28.8 26.5 28.6 26.3 28.5 26.2 28.4 26.2 28.4 26.1 28.5 25.9 28.7 25.6 28.8 25.4 28.9 25.2 28.9 24.9 28.8 24.7 28.5 24.6 28.2 24.5 27.9 24.5 27.6 24.5 27.3 24.5 27 24.5 26.8 24.7 26.7 24.9 26.7 25.1 26.6 25.5 26.4 25.8 26 26 25.9 26 25.8 26.1 25.8 26.1 25.7 26.2 25.7 26.4 25.7 26.5L25.9 26.6 25.9 27.3 25.7 27.5 26.3 27.8C26.4 27.9 26.4 28.1 26.5 28.2 26.6 28.3 26.7 28.4 26.9 28.4 26.8 28.5 26.8 28.6 26.7 28.7 26.6 28.8 26.6 28.9 26.5 29 26.5 29 26.4 29 26.4 28.9 26.1 28.7 25.9 28.5 25.6 28.3 25.4 28.2 25.2 28.1 24.9 28 24.8 28.7 24.6 29.4 24.2 29.9 24.1 30.1 23.9 30.2 23.7 30.4 23.5 30.5 23.4 30.6 23.3 30.7 23 31.1 22.9 31.7 23.1 32.2 23.2 33.3 23 34.5 22.5 35.5 22.3 36 22 36.6 21.7 37.1 21.5 37.5 21.3 37.9 21 38.3 20.7 38.6 20.5 39 20.4 39.4 20.4 39.6 20.4 39.8 20.5 39.9 20.6 40.1 20.8 40.2 21 40.3 21 40.3 21 40.3 21 40.3 20.9 40.5 20.9 40.7 20.9 41 20.9 41.2 21 41.4 21 41.5 21 41.7 21 41.8 21 42 21 42.1 21 42.2 21 42.3 20.9 42.6 20.5 42.6 20.2 42.6 19.9 42.6 19.6 42.6 19.3 42.6 19 42.6 18.8 42.7 18.6 42.8 18.1 43.2 17.7 43.7 17.6 44.3 17.4 44.8 17.3 45.4 17.2 46 17.3 46 17.5 46 17.6 46 17.8 46 17.9 46.1 17.9 46.3 17.9 46.5 17.9 46.6 17.8 46.8 17.8 46.9 17.8 47 17.8 47.1L17.5 47.1C17.4 47.1 17.3 47.1 17.2 47.1 17.1 47.1 16.9 47.2 16.9 47.3 16.8 47.4 16.9 47.5 16.9 47.7L16.5 47.7 16.5 47.8C16.6 47.9 16.7 47.9 16.7 48 16.8 48.1 16.8 48.2 16.9 48.3 17 48.6 17.3 48.8 17.6 48.9 17.6 48.9 17.7 48.9 17.7 49 17.7 49.1 17.7 49.2 17.7 49.3 17.6 49.4 17.7 49.6 17.8 49.7 17.9 49.4 18.2 49.3 18.4 49.4 18.4 49.4 18.4 49.4 18.4 49.4 18.5 49.7 18.7 49.9 18.9 50.1 18.6 50.5 18.2 50.3 17.9 50.3 17.9 50.4 17.8 50.4 17.8 50.5 17.8 50.7 17.8 50.7 18 50.8 18.1 50.8 18.2 50.8 18.2 50.9 18.2 51 18.1 51.1 18.2 51.2 18.3 51.3 18.3 51.4 18.4 51.4 18.4 51.6 18.4 51.9 18.3 52.1 18.3 52.3 18.4 52.5 18.3 52.7 18 52.8 17.8 52.8 17.5 52.9 17.1 53 16.7 52.9 16.3 52.6 16.2 52.5 16 52.4 15.8 52.3 15.7 52.3 15.6 52.2 15.5 52.1 15.4 51.8 15.4 51.5 15.5 51.2 15.6 51.1 15.6 50.9 15.7 50.8 15.7 50.6 15.9 50.4 16.1 50.3 15.9 50.2 15.7 50 15.6 49.8 15.5 49.6 15.4 49.5 15.3 49.4 15.2 49.2 15 49.1 14.9 48.9 14.7 48.9 14.5 48.9 14.4 48.9 14.1 48.8 13.8 48.7 13.5 48.5 13.1 48.3 12.7 48.2 12.3 48.1 11.6 47.9 10.8 47.9 10.1 47.9 10.2 48 10.4 48.1 10.5 48.2 10.6 48.3 10.8 48.4 11 48.5 11.3 48.6 11.5 48.8 11.6 49.1 11.6 49.1 11.6 49.2 11.7 49.2 11.9 49.3 12.1 49.3 12.1 49.6 11.9 49.6 11.7 49.7 11.5 49.7 11.3 49.8 11.1 49.8 10.9 49.9 10.8 49.9 10.8 49.9 10.7 49.9 10.4 49.9 10 49.9 9.7 49.9 9.5 49.9 9.3 49.9 9.1 49.8 8.9 49.8 8.8 49.6 8.6 49.7 8.6 49.7 8.5 49.6 8.4 49.6 8.3 49.5 8.2 49.5 8.1 49.5 8.1 49.5 8 49.5 8 49.5 8 49.8 7.6 50 7.2 50 6.8 50 6.5 50.2 6.2 50.4 6 50.6 5.8 50.6 5.6 50.5 5.5 50.5 5.4 50.5 5.4 50.5 5.4 50.5 5.4 50.5 5.4 50.5 5.4 50.5 5.4 50.5 5.4 50.5L5.4 50.5C5.3 50.5 5.1 50.6 5 50.6 5 50.6 5 50.6 5 50.7 4.9 50.9 4.7 51 4.5 51 4.2 51 3.9 51 3.7 51 3.6 51 3.5 51 3.4 51 3.4 51.2 3.3 51.3 3.3 51.4L3.6 51.5C3.6 51.8 3.9 52 3.5 52.2L3.9 52.4C3.9 52.7 4.1 53 4.3 53 4.6 53.1 4.8 53.2 5 53.4 5.1 53.6 5.5 53.5 5.6 53.3 5.6 53.2 5.7 53.2 5.7 53.1 6 53.1 6.3 53.2 6.5 53.4 6.6 53.5 6.9 53.6 7 53.5 7.2 53.5 7.4 53.4 7.6 53.2 7.7 53 7.9 53 8.1 53.1 8.1 53.1 8.2 53.1 8.2 53.1 8.4 53.1 8.5 52.9 8.7 53 8.6 53.4 8.5 53.7 8.6 54.1 8.6 54.2 8.6 54.4 8.5 54.5 8.4 54.6 8.4 54.7 8.3 54.9 8.2 55.2 8 55.5 7.9 55.9 7.8 56.2 7.7 56.4 7.5 56.5 7.8 56.9 8.1 57.3 8.3 57.7 8.5 58.2 8.7 58.7 8.7 59.3 8.8 59.5 8.9 59.7 9.1 59.8 9.2 59.9 9.2 60.1 9.3 60.2 9.3 60.4 9.5 60.5 9.6 60.6 10 60.9 10.3 61.3 10.3 61.8 10.3 62.2 10.5 62.7 10.9 62.9 11.2 63 11.4 63.3 11.5 63.6 11.6 63.9 11.8 64.2 12 64.4 12.3 64.7 12.4 65 12.4 65.4 12.4 65.5 12.4 65.7 12.4 65.8 12.5 66.2 12.6 66.5 12.7 66.9 12.7 67.1 12.9 67.3 13.1 67.2 13.1 67.2 13.1 67.2 13.1 67.2 13.3 67.2 13.4 67.1 13.6 67 13.8 66.8 14.1 66.7 14.4 66.7 14.5 66.7 14.6 66.7 14.7 66.6 14.9 66.5 15.2 66.4 15.4 66.4 15.5 66.4 15.5 66.4 15.6 66.3 15.8 66.1 16.1 65.9 16.4 65.9 16.7 65.8 16.9 65.7 17.2 65.6 17.3 65.6 17.4 65.5 17.4 65.4 17.4 65.1 17.6 65 17.9 64.9 18.3 64.7 18.7 64.7 19.1 64.6 19.1 64.1 19.5 64.1 19.8 64 19.8 63.6 20.2 63.5 20.4 63.4 20.4 63.2 20.5 63 20.5 62.8 20.5 62.6 20.7 62.6 20.8 62.6 21 62.4 21.1 62.2 21.2 62.1 21.3 62 21.4 61.8 21.5 61.6 21.4 61.5 21.4 61.5 21.3 61.4 21.1 61.1 20.7 60.8 20.3 60.8 19.9 60.7 19.6 60.3 19.6 59.9 19.6 59.8 19.6 59.8 19.6 59.7 19.6 59.6 19.6 59.6 19.5 59.5 19.2 59.8 18.9 60.1 18.6 60.4 18.5 60.6 18.3 60.6 18.1 60.6 17.8 60.6 17.5 60.6 17.2 60.6L16.9 60.4C17 59.8 17 59.6 16.8 59.4 16.8 59.5 16.7 59.6 16.7 59.7 16.7 59.8 16.7 59.9 16.6 60 16.5 59.8 16.3 59.6 16.3 59.3 16.3 59.1 16.2 58.9 16 58.8 15.7 58.6 15.5 58.3 15.4 57.9 15.3 57.7 15.2 57.5 15.1 57.3 15.2 57.2 15.2 57.1 15.2 57 15.2 56.9 15.4 56.8 15.5 56.8 15.6 56.8 15.7 56.7 15.9 56.8 16 56.9 16.2 56.8 16.3 56.9 16.6 57.2 16.8 57.6 17 58 17 58.1 17.2 58.3 17.3 58.3 17.5 58.3 17.7 58.4 17.8 58.6 17.8 58.7 17.9 58.7 18 58.7 18.3 58.9 18.6 58.9 18.9 59 19 59 19 59 19 59 19.2 58.9 19.4 58.8 19.6 58.7 19.9 58.6 20.1 58.6 20.2 59 20.2 59.1 20.3 59.3 20.3 59.4 20.8 59.6 21.2 59.6 21.7 59.7 21.9 59.7 22 59.7 22.2 59.8 22.5 59.9 22.8 59.9 23.1 59.8 23.4 59.7 23.7 59.7 24 59.7 24.3 59.7 24.7 59.7 25 59.6 25.1 59.6 25.2 59.6 25.3 59.6 25.4 59.7 25.4 59.8 25.5 59.9 25.6 60 25.7 60.1 25.8 60.1 25.8 60.2 25.9 60.4 25.9 60.5 25.9 60.5 26 60.5 26 60.6 26.2 60.6 26.4 60.7 26.5 60.9 26.6 61.1 26.9 61.3 27.2 61.2 27.3 61.2 27.4 61.2 27.4 61.2 27.3 61.5 27 61.4 26.8 61.6 27 61.8 27.2 62 27.4 62.2 27.6 62.3 27.8 62.4 28 62.3 28.3 62.2 28.5 62 28.5 61.7 28.5 61.7 28.6 61.6 28.6 61.6 28.6 61.6 28.7 61.6 28.7 61.7 28.7 62.1 29 62.4 28.8 62.8 28.8 62.9 28.8 63 28.8 63.1 28.9 63.6 29 64.1 29.1 64.7 29.1 65 29.2 65.2 29.4 65.5 29.7 66 29.9 66.5 30 67 30.1 67.2 30.2 67.4 30.3 67.6 30.4 67.7 30.5 67.9 30.6 68 30.7 68.3 30.8 68.7 30.9 69 31 69.2 31.1 69.4 31.2 69.5 31.4 69.7 31.6 69.6 31.8 69.4 31.8 69.3 31.9 69.2 32 69.2 32.2 69.1 32.4 68.9 32.4 68.7 32.5 68.5 32.7 68.5 32.8 68.4 32.8 68.3 32.8 68.2 32.8 68.1 32.7 67.8 32.8 67.6 32.9 67.3 33 67.1 33 66.9 33 66.7 33 66.4 32.9 66.1 32.9 65.9 32.9 65.6 33 65.4 33.3 65.4 33.3 65.4 33.3 65.4 33.3 65.4 33.4 65.4 33.4 65.3 33.5 65.3 33.6 65.2 33.7 65.1 33.9 65.1 34 65.1 34.2 65 34.2 64.8 34.2 64.6 34.3 64.6 34.4 64.5 34.5 64.4 34.7 64.3 34.8 64.2 35.1 64 35.4 63.7 35.6 63.4 35.7 63.3 35.9 63.2 36 63.1 36.1 63.1 36.2 63 36.3 63 36.5 62.9 36.6 62.7 36.6 62.5 36.6 62.3 36.7 62.1 36.9 62.1 37 62.1 37.1 61.9 37.3 61.9 37.4 61.9 37.6 61.9 37.7 61.8 37.9 62 38.1 61.8 38.3 61.8 38.5 61.8 38.7 61.7 38.8 61.5 38.8 61.3 38.5 61.3 38.7 61 38.7 61.1 38.9 61.2 39 61.2 39.2 61.2 39.3 61.3 39.3 61.5 39.4 61.6 39.4 61.8 39.4 61.9 39.4 62.1 39.6 62.3 39.8 62.5 39.9 62.6 40.1 62.7 40.2 62.8 40.3 62.9 40.4 62.9 40.4 63 40.4 63.1 40.4 63.2 40.4 63.3 40.5 63.4 40.6 63.4 40.6 63.5 40.8 63.8 40.9 64.2 40.8 64.6 40.8 64.7 40.7 64.9 40.7 65 40.8 65.1 41 65.2 41.1 65.2 41.2 65.2 41.3 65.2 41.3 65.2 41.5 65.1 41.7 64.9 41.9 64.8 42 64.7 42.1 64.6 42.1 64.4 42.3 64.7 42.4 65 42.5 65.3 42.6 65.8 42.7 66.2 42.9 66.6 43.1 67 43.1 67.4 43 67.9 43 68.4 42.9 68.8 42.8 69.3 42.8 69.3 42.8 69.4 42.8 69.4 42.9 69.5 43 69.6 43.1 69.7 43.3 70 43.6 70.3 43.8 70.6 43.9 70.7 43.9 70.8 43.9 71 43.9 71.5 44.1 72 44.4 72.4 44.4 72.4 44.4 72.5 44.5 72.6 44.5 72.7 44.6 72.7 44.6 72.8 44.9 73 45.3 73.2 45.6 73.5 45.7 73.6 45.9 73.5 46 73.4 46 73.2 45.9 73 45.7 72.9 45.6 72.8 45.6 72.7 45.6 72.5 45.6 72.3 45.6 72.1 45.6 72 45.6 71.7 45.5 71.5 45.3 71.3 45.1 71.1 44.8 70.9 44.6 70.6 44.6 70.6 44.5 70.5 44.4 70.5 44.1 70.5 44 70.3 43.9 70.1 43.8 69.9 43.7 69.6 43.6 69.4 43.6 69.3 43.5 69.2 43.4 69.2 43.2 69.2 43.2 69.1 43.2 68.9 43.2 68.7 43.2 68.6 43.3 68.4 43.5 67.9 43.7 67.4 43.7 66.9 43.7 66.8 43.8 66.7 43.9 66.7 44 66.7 44.1 66.7 44.2 66.7 44.2 66.9 44.3 67 44.3 67.1 44.9 67.1 45.4 67.5 45.5 68 45.6 68 45.7 67.9 45.7 68.1 45.7 68.2 45.8 68.2 45.9 68.3 46.1 68.4 46.3 68.5 46.5 68.7 46.5 68.9 46.5 69 46.5 69.2 46.5 69.3 46.5 69.4 46.6 69.4 46.8 69.3 46.9 69.2 47.1 69.1 47.3 69 47.4 68.8 47.5 68.6 47.5 68.6 47.6 68.5 47.6 68.5 48 68.5 48.4 68.3 48.7 68 48.8 67.9 48.9 67.8 48.9 67.7 49 67.3 49 67 48.9 66.6 48.8 66 48.5 65.5 48.1 65.2 48 65.1 47.9 65 47.8 64.9 47.5 64.7 47.4 64.3 47.1 64 47 63.9 47 63.8 47 63.6 47 63.1 47.4 62.9 47.7 62.5 47.7 62.5 47.7 62.5 47.7 62.5 47.8 62.5 47.9 62.4 48 62.3 48.2 62.1 48.4 62.1 48.7 62.1 48.9 62.1 49.1 62.2 49.3 62.2 49.3 62.3 49.3 62.5 49.3 62.6 49.3 62.7 49.4 62.7 49.4 62.8 49.4 62.8 49.5 62.8 49.6 62.8 49.6 62.7 49.6 62.6 49.6 62.5 49.7 62.3 49.9 62.2 50.2 62.2 50.6 62.2 51.1 62 51.4 61.7 51.4 61.6 51.4 61.5 51.5 61.4L52 62C52.2 61.9 52.4 61.9 52.6 61.8 52.7 61.8 52.9 61.8 53 61.7 53.1 61.7 53.2 61.6 53.3 61.6 53.4 61.4 53.6 61.3 53.8 61.2 53.9 61.1 54 61 54.1 60.9 54.1 60.9 54.2 60.8 54.2 60.8 54.5 60.7 54.5 60.5 54.7 60.3 55 60.1 55.1 59.8 55 59.4 55.2 59.3 55.4 59.2 55.5 58.9 55.6 58.7 55.7 58.5 55.9 58.4 55.9 58.4 56 58.3 56 58.3 56.1 58 56.1 57.7 56.2 57.5 56 57.3 55.9 57.2 55.7 57.3 55.6 57.3 55.5 57.3 55.5 57.2L56.2 56.8C56.1 56.7 56 56.6 55.9 56.5L56.1 56.3C55.9 56.1 55.8 56 55.6 55.8 55.5 55.6 55.4 55.3 55.3 55.1 55.3 54.9 55.1 54.8 55 54.7 54.9 54.7 54.7 54.6 54.7 54.4 54.7 54.4 54.7 54.3 54.7 54.3 54.8 54 55.1 53.9 55.2 53.6 55.4 53.6 55.5 53.4 55.7 53.3 55.7 53.3 55.8 53.3 55.8 53.2 56 53.1 56.2 53.1 56.4 53 56.4 53 56.5 52.9 56.5 52.8 56.1 52.8 55.8 52.7 55.5 52.5 55.3 52.6 55.2 52.7 55.1 52.8 54.8 53 54.6 52.9 54.6 52.6 54.6 52.5 54.6 52.4 54.5 52.4 54.4 52.4 54.3 52.4 54.2 52.3 53.8 52.2 53.7 52 53.9 51.7 53.9 51.7 54 51.7 54 51.6 54 51.6 54.1 51.6 54.1 51.6 54.4 51.6 54.7 51.6 54.8 51.3 54.8 51.2 54.9 51.2 55 51.1 55.3 51 55.5 50.8 55.7 50.6 55.9 50.4 56.2 50.4 56.4 50.6 56.4 50.6 56.4 50.6 56.4 50.6 56.5 50.7 56.5 50.8 56.5 50.9 56.5 50.9 56.5 50.9 56.5 50.9 56.4 51 56.3 51.1 56.2 51.3 56.2 51.4 56.3 51.6 56.3 51.7L56.3 51.7C56.6 51.5 56.8 51.3 57.2 51.2 57.6 51.1 58.1 51.1 58.4 51.4L58.1 52.2C58.2 52.3 58.3 52.4 58.5 52.4 58.7 52.4 58.9 52.5 59 52.6 59.1 52.7 59.2 52.8 59.1 53 59.1 53.1 59 53.1 58.9 53.2L59.1 53.8C58.9 54 58.9 54.4 59 54.6 59.3 54.6 59.4 54.4 59.7 54.3 60 54.2 60.2 54.2 60.4 54.1 60.6 53.9 60.6 53.7 60.6 53.5 60.6 53.4 60.6 53.3 60.6 53.2 60.6 53 60.5 52.8 60.4 52.6 60.3 52.4 60.2 52.2 60 52 59.9 51.9 59.9 51.8 59.8 51.8 59.7 51.7 59.6 51.6 59.5 51.5 59.5 51.3 59.6 51 59.8 51 60.1 50.8 60.5 50.6 60.7 50.4 60.6 50 60.8 49.7 61.1 49.5 61.4 49.3 61.6 49.1 61.9 48.9 61.9 48.9 62 48.9 62 48.9 62 48.9 62.1 48.9 62.1 49 62.3 49.2 62.6 49.3 62.8 49.2 63.2 49.1 63.5 48.9 63.8 48.5 64.1 48.1 64.5 47.7 64.9 47.3 65.1 47.1 65.3 46.9 65.4 46.6 65.6 46.2 65.9 45.8 66.2 45.5 66.3 45.4 66.4 45.3 66.4 45.2 66.6 44.8 66.6 44.4 66.6 44 66.6 43.8 66.6 43.6 66.7 43.4 66.8 43.2 66.9 43 67 42.9 67.1 42.8 67.1 42.7 67.1 42.5 67.1 42.4 67.1 42.2 67 42.2 66.9 42 67 42 67.1 41.8 66.9 41.6 66.7 41.5 66.6 41.3 66.5 41.1 66.2 41 66 41.1 65.9 41.1 65.9 41.1 65.8 41.1L65.6 41.5C65.5 41.5 65.4 41.5 65.3 41.5 65.2 41.5 65.1 41.5 65 41.5 65 41.4 65 41.3 65 41.2 64.8 41.2 64.7 41.4 64.6 41.3L64.6 41C64.3 40.9 64 41 63.8 40.7 63.9 40.6 63.9 40.6 64 40.5 64.3 40.3 64.5 40.1 64.8 39.9 65 39.7 65.3 39.5 65.5 39.3 65.7 39.1 65.8 38.9 66 38.8 66.2 38.7 66.4 38.5 66.6 38.4 66.7 38.3 66.7 38.3 66.8 38.2 66.9 38 67.1 37.8 67.2 37.8 67.3 37.7 67.4 37.6 67.5 37.5 67.7 37.3 68 37.1 68.3 37.1 68.7 37.1 69 37 69.4 37 69.5 37 69.6 37 69.7 37.1 69.8 37.2 69.9 37.1 69.9 37.1 69.9 37.1 70 37 70.1 37 70.4 37.1 70.7 37.1 70.9 37 71 37 71.1 37 71.2 37.1 71.2 37.1 71.3 37 71.3 37 71.5 36.7 71.9 36.7 72.2 36.8 72.3 36.8 72.4 36.9 72.5 36.9 72.8 36.8 73 37 73.2 37.2L72.7 37.3C72.7 37.4 72.8 37.5 72.9 37.4 73.2 37.3 73.5 37.4 73.8 37.2 73.9 37.2 74 37.2 74.1 37.2 74.3 37.2 74.5 37.2 74.7 37.1 74.6 36.9 74.4 37.1 74.3 36.9 74.3 36.6 74.5 36.3 74.9 36.1 75.2 35.9 75.5 35.6 75.7 35.3 75.8 35.1 76.1 35 76.3 35 76.5 35 76.6 35 76.8 34.9 77 34.8 77.2 34.8 77.4 35 77.6 35 77.7 34.8 77.8 35 77.9 35.2 77.6 35.3 77.6 35.6L77.9 36C78.2 35.8 78.4 35.6 78.7 35.4 78.9 35.3 79.1 35.2 79.3 35.2 79.3 34.9 79.3 34.7 79.5 34.5 79.8 34.5 80.1 34.2 80.4 34.5 80.4 34.5 80.4 34.6 80.3 34.6 80 34.7 79.9 34.8 79.9 35.1 79.9 35.4 79.8 35.7 79.6 36 79.4 36.1 79.2 36.2 79 36.2 78.9 36.2 78.8 36.3 78.8 36.4 78.6 36.6 78.4 36.9 78.1 37 77.9 37.1 77.7 37.3 77.5 37.6 77.3 37.9 77 38.2 76.6 38.3 76.4 38.4 76.2 38.5 76 38.6 76 38.8 75.9 39 75.7 39.2 75.5 39.4 75.3 39.6 75.3 39.9 75.2 40.3 75.2 40.6 75.3 41 75.5 41.8 75.7 42.6 75.8 43.4 75.8 43.5 75.9 43.6 76 43.6 76.5 43.4 76.9 42.9 76.9 42.3L77.6 42C77.6 41.9 77.6 41.8 77.6 41.8 77.6 41.6 77.7 41.4 77.8 41.3 78 41.1 78.2 41.1 78.4 41.1 78.6 41.1 78.7 41.1 78.8 40.9 78.8 40.9 78.8 40.9 78.8 40.9 78.8 40.9 78.8 40.8 78.7 40.7 78.6 40.4 78.6 40.1 78.9 39.8 79 39.8 79 39.7 79.1 39.7 79.2 39.7 79.2 39.8 79.3 39.8 79.4 39.8 79.5 39.7 79.5 39.6 79.5 39.5 79.5 39.4 79.4 39.4 79.3 39.4 79.3 39.3 79.3 39.2 79.2 39 79.4 38.8 79.5 38.6 79.4 38.6 79.3 38.5 79.2 38.5 79.1 38.5 79.1 38.5 79 38.5 78.9 38.5 78.8 38.4 78.8 38.3 78.8 38.1 78.9 38 79 37.9 79.3 37.7 79.4 37.4 79.5 37.1 79.6 36.9 79.7 36.8 79.9 36.8 80.1 36.8 80.3 36.8 80.4 36.9 80.6 36.7 80.8 36.6 81.1 36.5L81.2 36.8C81.3 36.8 81.3 36.8 81.3 36.7 81.6 36.4 82.1 36.3 82.5 36.3 82.7 36.3 83 36.4 83.1 36.6 83.2 36.7 83.2 36.7 83.3 36.8 83.4 36.5 83.6 36.3 83.9 36.2 84.2 36.1 84.4 35.9 84.7 35.7 84.9 35.6 85.1 35.4 85.3 35.3 85.8 35.1 86.3 35 86.7 34.8 87.1 34.6 87.5 34.6 87.9 34.7 88.1 34.8 88.3 34.7 88.4 34.6 88.4 34.6 88.4 34.6 88.4 34.5 88.4 34.5 88.4 34.4 88.4 34.4 88.3 34.3 88.3 34.1 88.1 33.9 88 33.8 88 33.5 87.9 33.3 87.9 33.2 87.8 33.1 87.7 33.1 87.4 33.1 87.3 32.9 87.2 32.7 86.8 32.8 86.8 32.8 86.7 32.6 86.9 32.5 87.2 32.5 87.4 32.6 87.6 32.7 87.9 32.7 88.1 32.6 88.2 32.6 88.4 32.5 88.5 32.4L88.5 32C88.7 31.9 88.8 31.8 88.8 31.6 88.6 31.3 88.6 31.3 88.7 31.1 88.9 30.9 89.2 30.9 89.4 31L89.3 31.3 89.5 31.7C89.7 31.7 89.9 31.7 90.1 31.7 90.4 31.6 90.8 31.8 90.9 32.1 91 32.3 91.1 32.4 91.3 32.4 91.5 32.4 91.7 32.5 91.9 32.7 92 32.8 92.1 32.8 92.2 32.8 92.3 32.8 92.4 32.9 92.5 32.9 92.6 32.9 92.7 32.8 92.8 32.8 92.7 32.7 92.6 32.7 92.6 32.6 92.6 32.5 92.7 32.5 92.7 32.4 92.8 32.3 92.8 32.3 92.9 32.2 92.9 32.1 92.9 32 92.9 31.9 92.9 31.8 92.8 31.7 92.8 31.6 92.9 31.6 93.1 31.7 93.2 31.7 93.3 31.7 93.4 31.6 93.5 31.6 93.6 31.6 93.8 31.6 93.8 31.4 93.9 31.3 94 31.2 94.1 31.2 93.7 30.8 93.4 30.6 93.1 30.4ZM49.6 40.8C49.6 40.9 49.6 41.1 49.5 41.2 49.4 41.5 49.3 41.8 49 42 48.7 42.2 48.4 42.4 48.1 42.6 47.9 42.7 47.7 42.8 47.6 43 47.6 43.1 47.5 43.1 47.5 43.1 47.2 43.2 47 43.3 46.7 43.3 46.6 43.3 46.5 43.2 46.4 43.1 46.6 43.1 46.7 43 46.8 43 47.1 43 47.3 42.8 47.5 42.6 47.6 42.5 47.7 42.4 47.8 42.4 47.9 42.3 48 42.3 48 42.2 48.1 42 48.3 41.9 48.4 41.7 48.9 41.3 49.2 40.8 49.4 40.2 49.4 40.1 49.5 40.1 49.6 40 49.7 40 49.7 40 49.8 40 49.8 40 49.9 40.1 49.9 40.1 49.7 40.4 49.6 40.6 49.6 40.8ZM69.3 25.3C69.1 25.3 69.1 25.3 68.8 25.4 68.9 25.2 69 25 69.2 25.1 69.5 25.2 69.7 25.2 70 25.2 69.8 25.2 69.7 25.2 69.5 25.3L69.3 25.3Z" stroke="none" stroke-width="1" stroke-linecap="butt" stroke-linejoin="miter" stroke-miterlimit="4" fill="currentColor"/></svg>